<?xml version="1.0" standalone="no"?>
<!DOCTYPE svg PUBLIC "-//W3C//DTD SVG 20010904//EN"
 "http://www.w3.org/TR/2001/REC-SVG-20010904/DTD/svg10.dtd">
<svg version="1.0" xmlns="http://www.w3.org/2000/svg"
 width="375.000000pt" height="375.000000pt" viewBox="0 0 375.000000 375.000000"
 preserveAspectRatio="xMidYMid meet">
<metadata>
Created by potrace 1.14, written by Peter Selinger 2001-2017
</metadata>
<g transform="translate(0.000000,375.000000) scale(0.100000,-0.100000)"
fill="#000000" stroke="none">
<path d="M1805 3744 c-100 -20 -133 -29 -173 -46 -124 -55 -223 -142 -309
-274 -51 -80 -586 -1133 -752 -1484 -65 -137 -247 -528 -303 -650 -114 -248
-133 -323 -132 -500 1 -115 5 -147 27 -216 86 -274 292 -473 565 -546 81 -21
236 -28 322 -15 244 38 479 174 723 419 48 48 89 88 92 88 2 0 51 -45 107
-101 238 -233 460 -362 694 -402 75 -13 219 -15 274 -3 14 3 41 9 60 12 53 10
184 69 247 111 73 48 169 144 218 218 128 194 174 459 116 663 -19 66 -126
321 -184 438 -24 48 -48 98 -139 294 -107 229 -217 454 -425 870 -384 767
-422 834 -528 942 -81 83 -179 140 -288 167 -50 12 -179 21 -212 15z m241
-285 c61 -30 131 -92 171 -149 39 -55 518 -1003 682 -1350 200 -422 270 -571
338 -720 123 -270 134 -309 129 -460 -4 -118 -23 -186 -77 -275 -150 -248
-449 -335 -740 -215 -81 34 -241 137 -309 200 -25 23 -58 54 -75 69 -16 16
-54 53 -84 84 l-54 56 66 88 c37 48 70 93 75 98 40 50 138 213 187 310 134
267 180 514 131 710 -14 56 -23 79 -54 139 -38 73 -131 175 -197 217 -159 100
-321 126 -535 86 -50 -9 -156 -60 -217 -103 -108 -77 -188 -193 -228 -329 -23
-77 -27 -239 -9 -325 8 -36 16 -77 19 -92 11 -59 71 -208 126 -316 65 -126
152 -263 253 -396 77 -102 81 -81 -40 -201 -132 -131 -212 -193 -328 -256
-135 -73 -216 -94 -356 -93 -308 2 -550 245 -550 554 0 121 36 232 160 495 29
61 68 144 87 185 175 374 249 528 465 960 266 533 407 805 453 874 31 47 66
83 135 139 8 7 44 22 80 35 96 34 207 27 296 -19z m-70 -1333 c225 -60 328
-257 274 -523 -37 -177 -156 -412 -328 -641 -48 -65 -56 -72 -65 -55 -6 10
-13 20 -16 23 -18 14 -117 158 -173 251 -220 363 -253 666 -92 835 99 103 260
147 400 110z"/>
</g>
</svg>
